<?xml version="1.0" encoding="UTF-8" standalone="no"?>
<svg width="34px" height="34px" viewBox="0 0 34 34" version="1.1" xmlns="http://www.w3.org/2000/svg" xmlns:xlink="http://www.w3.org/1999/xlink" xmlns:sketch="http://www.bohemiancoding.com/sketch/ns">
    <!-- Generator: Sketch 3.5.2 (25235) - http://www.bohemiancoding.com/sketch -->
    <title>facebook</title>
    <desc>Created with Sketch.</desc>
    <defs></defs>
    <g id="Page-1" stroke="none" stroke-width="1" fill="none" fill-rule="evenodd" sketch:type="MSPage">
        <g id="Artboard-2" sketch:type="MSArtboardGroup" transform="translate(-1185.000000, -116.000000)" fill="#FFFFFF">
            <g id="Group-Copy" sketch:type="MSLayerGroup" transform="translate(1073.000000, 116.000000)">
                <g id="Group-9" transform="translate(112.000000, 0.000000)" sketch:type="MSShapeGroup">
                    <g id="facebook" transform="translate(0.245125, 0.406685)">
                        <path d="M16.6785682,0.813370474 C7.93320891,0.813370474 0.818250696,7.92832869 0.818250696,16.6740947 C0.818250696,25.419454 7.93320891,32.5344123 16.6785682,32.5344123 C25.4247409,32.5344123 32.5396992,25.419454 32.5396992,16.6740947 C32.5396992,7.92832869 25.4247409,0.813370474 16.6785682,0.813370474 L16.6785682,0.813370474 Z M16.6785682,33.3477827 C7.4846351,33.3477827 0.00488022284,25.8680279 0.00488022284,16.6740947 C0.00488022284,7.47975487 7.4846351,0 16.6785682,0 C25.8729081,0 33.3530696,7.47975487 33.3530696,16.6740947 C33.3530696,25.8680279 25.8729081,33.3477827 16.6785682,33.3477827 L16.6785682,33.3477827 Z" id="Fill-2"></path>
                        <path d="M13.1473203,14.1949415 L14.6605961,14.1949415 L14.6605961,12.7243677 C14.6605961,12.0752981 14.6768635,11.0748524 15.147805,10.4550641 C15.6443677,9.79908078 16.3255655,9.35335376 17.4976323,9.35335376 C19.4070195,9.35335376 20.2110362,9.62542618 20.2110362,9.62542618 L19.8324123,11.8682953 C19.8324123,11.8682953 19.2020501,11.6852869 18.6135766,11.6852869 C18.0246964,11.6852869 17.4976323,11.8963565 17.4976323,12.4848301 L17.4976323,14.1949415 L19.9113092,14.1949415 L19.7429415,16.3853482 L17.4976323,16.3853482 L17.4976323,23.9940223 L14.6605961,23.9940223 L14.6605961,16.3853482 L13.1473203,16.3853482 L13.1473203,14.1949415" id="Fill-3"></path>
                    </g>
                </g>
            </g>
        </g>
    </g>
</svg>