<?xml version="1.0" encoding="UTF-8" standalone="no"?>
<svg width="35px" height="34px" viewBox="0 0 35 34" version="1.1" xmlns="http://www.w3.org/2000/svg" xmlns:xlink="http://www.w3.org/1999/xlink" xmlns:sketch="http://www.bohemiancoding.com/sketch/ns">
    <!-- Generator: Sketch 3.5.2 (25235) - http://www.bohemiancoding.com/sketch -->
    <title>instagram</title>
    <desc>Created with Sketch.</desc>
    <g id="Page-1" stroke="none" stroke-width="1" fill="none" fill-rule="evenodd" sketch:type="MSPage">
        <g id="Artboard-2" sketch:type="MSArtboardGroup" transform="translate(-1147.000000, -116.000000)" fill="#FFFFFF">
            <g id="Group-Copy" sketch:type="MSLayerGroup" transform="translate(1073.000000, 116.000000)">
                <g id="Group-6" transform="translate(74.000000, 0.000000)" sketch:type="MSShapeGroup">
                    <g id="instagram" transform="translate(0.830084, 0.406685)">
                        <path d="M16.6980891,0.813370474 C7.95232312,0.813370474 0.837364903,7.92832869 0.837364903,16.6740947 C0.837364903,25.419454 7.95232312,32.5348189 16.6980891,32.5348189 C25.4438552,32.5348189 32.5588134,25.419454 32.5588134,16.6740947 C32.5588134,7.92832869 25.4438552,0.813370474 16.6980891,0.813370474 L16.6980891,0.813370474 Z M16.6980891,33.3481894 C7.50415599,33.3481894 0.023994429,25.8680279 0.023994429,16.6740947 C0.023994429,7.47975487 7.50415599,0 16.6980891,0 C25.892429,0 33.3721838,7.47975487 33.3721838,16.6740947 C33.3721838,25.8680279 25.892429,33.3481894 16.6980891,33.3481894 L16.6980891,33.3481894 Z" id="Fill-31"></path>
                        <path d="M22.593805,21.1618663 C22.593805,21.9353816 21.964663,22.5633036 21.1907409,22.5633036 L12.2090975,22.5633036 C11.4351755,22.5633036 10.8064401,21.9353816 10.8064401,21.1618663 L10.8064401,15.1717994 L12.9919666,15.1717994 C12.8036713,15.6366407 12.6967131,16.1429638 12.6967131,16.6740947 C12.6967131,18.8803621 14.4926351,20.6742507 16.7001226,20.6742507 C18.90761,20.6742507 20.7031253,18.8803621 20.7031253,16.6740947 C20.7031253,16.1429638 20.5957604,15.6366407 20.4082786,15.1717994 L22.593805,15.1717994 L22.593805,21.1618663 L22.593805,21.1618663 Z M14.6109805,15.1717994 C15.0786685,14.5231365 15.8399833,14.0981504 16.7001226,14.0981504 C17.5602618,14.0981504 18.3207632,14.5231365 18.7888579,15.1717994 C19.0942786,15.5951588 19.2781003,16.1124624 19.2781003,16.6740947 C19.2781003,18.0942396 18.1210808,19.2484123 16.7001226,19.2484123 C15.2787577,19.2484123 14.1229582,18.0942396 14.1229582,16.6740947 C14.1229582,16.1124624 14.3059666,15.5951588 14.6109805,15.1717994 L14.6109805,15.1717994 Z M22.002078,11.045571 L22.3253928,11.0439443 L22.3253928,13.5230975 L19.8523398,13.5324513 L19.8433928,11.052078 L22.002078,11.045571 L22.002078,11.045571 Z M21.1907409,9.35864067 L12.2090975,9.35864067 C10.6494596,9.35864067 9.3797883,10.6266852 9.3797883,12.1859164 L9.3797883,21.1618663 C9.3797883,22.7210975 10.6494596,23.9891421 12.2090975,23.9891421 L21.1907409,23.9891421 C22.7503788,23.9891421 24.0204568,22.7210975 24.0204568,21.1618663 L24.0204568,12.1859164 C24.0204568,10.6266852 22.7503788,9.35864067 21.1907409,9.35864067 L21.1907409,9.35864067 Z" id="Fill-32"></path>
                    </g>
                </g>
            </g>
        </g>
    </g>
</svg>