<?xml version="1.0" encoding="UTF-8" standalone="no"?>
<svg width="34px" height="34px" viewBox="0 0 34 34" version="1.1" xmlns="http://www.w3.org/2000/svg" xmlns:xlink="http://www.w3.org/1999/xlink" xmlns:sketch="http://www.bohemiancoding.com/sketch/ns">
    <!-- Generator: Sketch 3.5.2 (25235) - http://www.bohemiancoding.com/sketch -->
    <title>VK</title>
    <desc>Created with Sketch.</desc>
    <defs></defs>
    <g id="Page-1" stroke="none" stroke-width="1" fill="none" fill-rule="evenodd" sketch:type="MSPage">
        <g id="Artboard-2" sketch:type="MSArtboardGroup" transform="translate(-1110.000000, -116.000000)" fill="#FFFFFF">
            <g id="Group-Copy" sketch:type="MSLayerGroup" transform="translate(1073.000000, 116.000000)">
                <g id="Group-8" transform="translate(37.000000, 0.000000)" sketch:type="MSShapeGroup">
                    <g id="VK" transform="translate(0.415042, 0.406685)">
                        <path d="M16.6980891,0.813370474 C7.95232312,0.813370474 0.837364903,7.92832869 0.837364903,16.6740947 C0.837364903,25.4178273 7.95232312,32.5348189 16.6980891,32.5348189 C25.4438552,32.5348189 32.5588134,25.4178273 32.5588134,16.6740947 C32.5588134,7.92832869 25.4438552,0.813370474 16.6980891,0.813370474 L16.6980891,0.813370474 Z M16.6980891,33.3481894 C7.50415599,33.3481894 0.023994429,25.8692479 0.023994429,16.6740947 C0.023994429,7.47975487 7.50415599,0 16.6980891,0 C25.892429,0 33.3721838,7.47975487 33.3721838,16.6740947 C33.3721838,25.8692479 25.892429,33.3481894 16.6980891,33.3481894 L16.6980891,33.3481894 Z" id="Fill-37"></path>
                        <path d="M16.9216784,23.1726618 C16.9216784,23.1726618 17.2372887,23.1382393 17.3989428,22.9678062 C17.5469119,22.8116459 17.54178,22.5169561 17.54178,22.5169561 C17.54178,22.5169561 17.5221078,21.1408978 18.1730007,20.9377214 C18.8144851,20.7379033 19.6381511,22.2684429 20.5122806,22.8569828 C21.1725819,23.3019559 21.6737951,23.2045655 21.6737951,23.2045655 L24.0096537,23.1726618 C24.0096537,23.1726618 25.2310401,23.0987795 24.6519935,22.1559402 C24.6040959,22.0786996 24.314145,21.458256 22.9157089,20.1837859 C21.4505585,18.8497061 21.6472804,19.0654761 23.4109349,16.757493 C24.4852075,15.3520496 24.9145744,14.4940072 24.7802903,14.1271143 C24.6528488,13.7761732 23.8625399,13.8693657 23.8625399,13.8693657 L21.2333091,13.8853176 C21.2333091,13.8853176 21.0382978,13.8592908 20.89375,13.9440876 C20.7526234,14.0272052 20.661105,14.2211463 20.661105,14.2211463 C20.661105,14.2211463 20.2454231,15.3083919 19.6903252,16.2336001 C18.5194023,18.1847652 18.0515463,18.2880325 17.8599563,18.1671342 C17.4143384,17.8841985 17.5255291,17.032033 17.5255291,16.4267017 C17.5255291,14.5351462 17.818046,13.7467882 16.9567462,13.5427722 C16.6710718,13.4747669 16.4606649,13.4302696 15.7293727,13.4227135 C14.7910948,13.4134782 13.9973647,13.4260717 13.5474703,13.6418417 C13.2481109,13.7854085 13.0171765,14.106125 13.1583031,14.1245955 C13.3319315,14.147264 13.7253753,14.2287025 13.9340716,14.5074403 C14.203495,14.8676167 14.1940866,15.6752848 14.1940866,15.6752848 C14.1940866,15.6752848 14.3488982,17.9018295 13.8322894,18.1780486 C13.47819,18.3677919 12.9923724,17.9807492 11.9480358,16.2100921 C11.4134654,15.3033545 11.0097579,14.3009056 11.0097579,14.3009056 C11.0097579,14.3009056 10.9319244,14.1136811 10.7925085,14.0129325 C10.6240119,13.8911946 10.3888009,13.8534138 10.3888009,13.8534138 L7.89043289,13.8693657 C7.89043289,13.8693657 7.51495067,13.8794406 7.37724535,14.0397988 C7.25493565,14.1816864 7.36783691,14.4763762 7.36783691,14.4763762 C7.36783691,14.4763762 9.32393677,18.9689253 11.5391963,21.2332507 C13.5705637,23.3086724 15.8764864,23.1726618 15.8764864,23.1726618 L16.9216784,23.1726618 Z" id="Shape"></path>
                    </g>
                </g>
            </g>
        </g>
    </g>
</svg>