<?xml version="1.0" encoding="UTF-8" standalone="no"?>
<svg width="34px" height="34px" viewBox="0 0 34 34" version="1.1" xmlns="http://www.w3.org/2000/svg" xmlns:xlink="http://www.w3.org/1999/xlink" xmlns:sketch="http://www.bohemiancoding.com/sketch/ns">
    <!-- Generator: Sketch 3.5.2 (25235) - http://www.bohemiancoding.com/sketch -->
    <title>twitter</title>
    <desc>Created with Sketch.</desc>
    <defs></defs>
    <g id="Page-1" stroke="none" stroke-width="1" fill="none" fill-rule="evenodd" sketch:type="MSPage">
        <g id="Artboard-2" sketch:type="MSArtboardGroup" transform="translate(-1073.000000, -116.000000)" fill="#FFFFFF">
            <g id="Group-Copy" sketch:type="MSLayerGroup" transform="translate(1073.000000, 116.000000)">
                <g id="Group-10" sketch:type="MSShapeGroup">
                    <g id="twitter">
                        <path d="M16.6984958,1.21964903 C7.95272981,1.21964903 0.837771588,8.33460724 0.837771588,17.0803733 C0.837771588,25.8257326 7.95272981,32.9406908 16.6984958,32.9406908 C25.4438552,32.9406908 32.5584067,25.8257326 32.5584067,17.0803733 C32.5584067,8.33460724 25.4438552,1.21964903 16.6984958,1.21964903 L16.6984958,1.21964903 Z M16.6984958,33.7540613 C7.50456267,33.7540613 0.0244011142,26.2743064 0.0244011142,17.0803733 C0.0244011142,7.88603343 7.50456267,0.406278552 16.6984958,0.406278552 C25.892429,0.406278552 33.3717772,7.88603343 33.3717772,17.0803733 C33.3717772,26.2743064 25.892429,33.7540613 16.6984958,33.7540613 L16.6984958,33.7540613 Z" id="Fill-4"></path>
                        <path d="M12.7651449,20.7514294 L12.7752802,18.2800632 L13.2371618,18.2752203 L13.6985608,18.2694087 L13.6932518,17.8887515 L13.6874602,17.5076099 L12.3544226,17.5022827 L11.0223503,17.4969554 L11.0223503,17.8834242 L11.0223503,18.2694087 L11.4731312,18.2752203 L11.9239122,18.2800632 L11.9292212,20.731089 C11.9316344,22.0788868 11.9383913,23.1937379 11.9437003,23.2077825 C11.9509398,23.2276386 12.044571,23.2324816 12.3539399,23.2281229 L12.7550095,23.2227957 L12.7651449,20.7514294 Z M20.4540014,20.5775669 C20.4351787,20.5281687 20.461241,19.9571828 20.486338,19.8743681 C20.5447368,19.6796808 20.668774,19.5847586 20.8642411,19.5847586 C21.0268891,19.5847586 21.1301729,19.6477172 21.1996723,19.7891318 C21.2435921,19.8787267 21.2479358,19.9169862 21.2546927,20.2482451 L21.2614496,20.6090462 L20.8632758,20.6090462 C20.5210877,20.6090462 20.4641368,20.6046875 20.4540014,20.5775669 L20.4540014,20.5775669 Z M21.1972592,23.2402303 C21.5872282,23.130295 21.8570211,22.8629632 21.958857,22.485696 C21.9757493,22.4212846 21.9955373,22.2377361 22.0022942,22.0784025 L22.0138774,21.788793 L21.6383875,21.788793 L21.2624149,21.788793 L21.2532448,22.0483761 C21.2426268,22.3433128 21.2122209,22.4445308 21.1050759,22.5389687 C20.9911741,22.6392181 20.7817105,22.6464826 20.6456075,22.5544662 C20.4834422,22.4445308 20.4433835,22.2590452 20.4515883,21.65658 L20.4573799,21.2294303 L21.2349047,21.2245874 L22.0124295,21.2187758 L22.0022942,20.5833785 C21.9897457,19.8743681 21.9752666,19.7668542 21.8565384,19.5150199 C21.6301827,19.0379876 21.0032399,18.7972921 20.4824769,18.9876208 C20.0896121,19.1314569 19.8574647,19.3905556 19.7643162,19.7915533 C19.731497,19.932968 19.7276359,20.0598537 19.7276359,21.0972173 C19.7276359,22.3694648 19.7319796,22.4212846 19.8613258,22.6818362 C20.0925079,23.1453082 20.6711871,23.3874566 21.1972592,23.2402303 L21.1972592,23.2402303 Z M18.1185312,22.5157224 C18.166312,22.4832746 18.1976833,22.438235 18.2222977,22.3680119 C18.2536689,22.2755113 18.2565647,22.1578272 18.252221,21.0667066 C18.2478773,19.9295779 18.2454641,19.8627449 18.2087839,19.7881632 C18.1146701,19.5978346 17.8776963,19.5794314 17.6605106,19.7460294 L17.5890807,19.8002707 L17.5890807,21.0972173 L17.5890807,22.394164 L17.660028,22.4484052 C17.8207454,22.5714166 17.9969072,22.5970843 18.1185312,22.5157224 L18.1185312,22.5157224 Z M18.5891002,23.2479791 C18.7073457,23.213594 18.8502057,23.0726637 18.9143961,22.9288275 C19.0379506,22.6532627 19.0384333,22.6464826 19.0384333,21.0972173 C19.0384333,19.8254541 19.0345722,19.668542 19.0032009,19.5310017 C18.901365,19.090776 18.6793529,18.8985102 18.3057935,18.9265994 C18.0968126,18.9430655 17.9322341,19.0263645 17.7348364,19.2176617 C17.6489274,19.3004764 17.5721885,19.3687623 17.563501,19.3687623 C17.5557789,19.3687623 17.5485393,18.9474241 17.5485393,18.433101 L17.5485393,17.4974397 L17.1836674,17.4974397 L16.8187954,17.4974397 L16.8187954,20.3649607 L16.8187954,23.2329659 L17.1836674,23.2329659 L17.5485393,23.2329659 L17.5485393,23.0397315 C17.5485393,22.9113929 17.5562615,22.8464971 17.5712232,22.8464971 C17.5832891,22.8464971 17.665337,22.9142986 17.7536592,22.9975977 C18.0374485,23.2654138 18.2831097,23.3390269 18.5891002,23.2479791 L18.5891002,23.2479791 Z M14.7053372,23.2290915 C14.8510929,23.1748503 15.0224283,23.0557133 15.1667361,22.9084871 C15.2328571,22.8406855 15.2989781,22.7854757 15.3134571,22.7854757 C15.3327625,22.7854757 15.3395194,22.8406855 15.3395194,23.0092208 L15.3395194,23.2329659 L15.7043914,23.2329659 L16.0692634,23.2329659 L16.0692634,21.1073875 L16.0692634,18.9822935 L15.7043914,18.9822935 L15.3395194,18.9822935 L15.3395194,20.6216379 L15.3395194,22.2614667 L15.1821804,22.4178945 C15.0576606,22.5423588 15.0055361,22.5801339 14.9283145,22.601443 C14.7980031,22.6377652 14.7149899,22.6125818 14.6614174,22.5200811 C14.6208761,22.451311 14.6199108,22.4193474 14.6141192,20.7160758 L14.6088102,18.9822935 L14.2439382,18.9822935 L13.8800315,18.9822935 L13.8800315,20.8231054 C13.8800315,22.8285781 13.881962,22.8721648 13.9939333,23.0653992 C14.1165226,23.2765526 14.4032077,23.3429013 14.7053372,23.2290915 L14.7053372,23.2290915 Z M15.0151888,25.0025862 C14.5412413,24.9943531 13.9804195,24.9812771 13.7685428,24.9735283 C12.3462178,24.9221929 11.3698474,24.8674674 11.1748629,24.827755 C10.8968652,24.7715766 10.5860483,24.5827009 10.4055429,24.3604087 C10.1169272,24.0044506 9.96248402,23.5724579 9.88767561,22.9075185 C9.71440968,21.3616433 9.71827076,19.5586066 9.89829358,18.0669727 C9.9774457,17.4131721 10.1738781,16.9409828 10.5035177,16.611661 C10.6917453,16.4232696 10.8727334,16.3186615 11.1135682,16.2566715 C11.6357792,16.1225213 15.7217663,16.015976 18.207336,16.0711858 C19.6431748,16.1031494 21.1943634,16.1699824 21.6065336,16.2169592 C22.1398451,16.2779805 22.5143698,16.5549983 22.7735447,17.0804602 C22.9694945,17.4770992 23.0317544,17.7860806 23.1113892,18.7382079 C23.1736491,19.4917736 23.1890934,19.9615415 23.1775102,20.8318227 C23.164479,21.8730607 23.098358,22.7903187 22.9994179,23.3051261 C22.8951687,23.8494756 22.6490249,24.3134319 22.3300033,24.5647819 C22.0843421,24.7589849 21.8222714,24.845674 21.4096185,24.8689203 C21.2870293,24.8761847 21.1321035,24.8858706 21.0650172,24.8911979 C20.8275608,24.9096012 19.55437,24.9609366 18.8559973,24.9807928 C17.8183322,25.0098506 16.0026598,25.0200208 15.0151888,25.0025862 Z M13.7347039,15.5562154 C13.717329,15.5276419 13.7202249,13.8543967 13.7375997,13.6175756 C13.7602836,13.3139216 13.7091243,13.074679 13.4919385,12.4634965 C13.4214739,12.2654191 13.2940582,11.8808875 13.2091145,11.6096814 C12.5947203,9.64876389 12.6270568,9.76354222 12.6859383,9.76305792 C13.0908689,9.75966784 13.5903961,9.76208933 13.5961877,9.76790089 C13.6000488,9.77177526 13.7313255,10.2502604 13.8881818,10.8319008 C14.0455208,11.4130569 14.1763148,11.8968693 14.1796933,11.9075238 C14.1825891,11.9172098 14.2747724,11.5786864 14.3843305,11.1549267 C14.613582,10.2657579 14.7424456,9.77516534 14.7472719,9.77080667 C14.7574072,9.76112073 14.8713091,9.75918355 15.2443859,9.76112073 L15.6570387,9.76354222 L15.6478686,9.82989087 C15.6406291,9.88364781 15.3587703,10.8328694 15.0638804,11.7971042 C15.0320265,11.9036495 14.9494959,12.1782457 14.8814444,12.4078024 C14.8133929,12.6368747 14.731345,12.9090495 14.6985258,13.012689 L14.6391617,13.2015647 L14.6391617,14.3793744 C14.6391617,15.4840552 14.6367485,15.5581526 14.6039294,15.5668699 C14.5296036,15.5872104 13.747735,15.5775245 13.7347039,15.5562154 Z M19.0678195,15.6269227 C18.8641476,15.5998021 18.7449368,15.5208618 18.6633715,15.3586224 C18.5610529,15.1552177 18.5610529,15.1561863 18.5610529,13.1294045 L18.5610529,11.2382258 L18.9722578,11.2382258 L19.3829801,11.2382258 L19.3916675,12.981694 C19.4008376,14.8752942 19.3984244,14.8312232 19.511361,14.8597967 C19.6151275,14.8854644 19.7299946,14.8297703 19.8728545,14.6835127 L20.0099228,14.543551 L20.0152318,12.8906462 L20.0200582,11.2382258 L20.4307805,11.2324142 L20.8415028,11.2275712 L20.8415028,13.3918933 L20.8415028,15.5566997 L20.7855171,15.5683228 C20.7184309,15.5823674 20.0958319,15.5813988 20.0456378,15.5668699 C20.0152318,15.5586369 20.0104055,15.5305477 20.0104055,15.3610438 L20.0104055,15.1644194 L19.8936078,15.2787134 C19.6252628,15.5407179 19.3356819,15.6627607 19.0678195,15.6269227 L19.0678195,15.6269227 Z M16.9982811,14.8002282 C17.1392105,14.6927143 17.1401757,14.6835127 17.1474153,13.466475 C17.1536895,12.5206435 17.1503111,12.359857 17.1218356,12.2310341 C17.0832248,12.0566872 17.0156559,11.9743568 16.883414,11.9380345 C16.7125612,11.8925106 16.5561875,11.9903386 16.5011671,12.1777614 C16.4596605,12.3220818 16.4601432,14.4675164 16.5021324,14.6118368 C16.5339863,14.7203193 16.6358223,14.838972 16.7111133,14.855438 C16.8090882,14.8762628 16.9292643,14.8530166 16.9987637,14.8002282 L16.9982811,14.8002282 Z M16.6763636,15.6259541 C16.3085958,15.5813988 15.9707514,15.3644339 15.8081034,15.0680443 C15.6425597,14.7663274 15.6271153,14.6084467 15.636768,13.2795365 C15.6444902,12.2504059 15.647386,12.1859945 15.6879273,12.038284 C15.7849369,11.6871688 15.9726819,11.4479262 16.2637108,11.3031215 C16.6633325,11.1050442 17.0943254,11.1307119 17.4712633,11.375766 C17.7116155,11.5312253 17.8573712,11.7569076 17.9355581,12.0925252 C17.9698251,12.24072 17.9732036,12.3545297 17.9732036,13.3938305 C17.9732036,14.657845 17.967412,14.7309738 17.8380658,15.0046014 C17.7140286,15.2685432 17.4331351,15.5010056 17.1401757,15.5828517 C17.0108296,15.6182054 16.7864044,15.6395145 16.6763636,15.6259541 L16.6763636,15.6259541 Z" id="Shape"></path>
                    </g>
                </g>
            </g>
        </g>
    </g>
</svg>