<?xml version="1.0" encoding="UTF-8" standalone="no"?><svg xmlns="http://www.w3.org/2000/svg" xmlns:xlink="http://www.w3.org/1999/xlink"><symbol viewBox="0 0 34 34" id="fb_icon"><title>facebook</title><g transform="translate(.245 .407)" fill="#FFF" fill-rule="evenodd"><path d="M16.679.813C7.933.813.819 7.928.819 16.674c0 8.745 7.114 15.86 15.86 15.86 8.746 0 15.86-7.115 15.86-15.86 0-8.746-7.114-15.86-15.86-15.86zm0 32.535c-9.194 0-16.674-7.48-16.674-16.674C.005 7.48 7.485 0 16.679 0c9.194 0 16.674 7.48 16.674 16.674 0 9.194-7.48 16.674-16.674 16.674z"/><path d="M13.147 14.195h1.514v-1.47c0-.65.016-1.65.487-2.27.496-.656 1.178-1.102 2.35-1.102 1.909 0 2.713.272 2.713.272l-.379 2.243s-.63-.183-1.218-.183c-.59 0-1.116.211-1.116.8v1.71h2.413l-.168 2.19h-2.245v7.609H14.66v-7.609h-1.514v-2.19"/></g></symbol><symbol viewBox="0 0 35 34" id="insta_icon"><title>instagram</title><g transform="translate(.83 .407)" fill="#FFF" fill-rule="evenodd"><path d="M16.698.813C7.952.813.838 7.928.838 16.674c0 8.745 7.114 15.86 15.86 15.86 8.746 0 15.86-7.115 15.86-15.86 0-8.746-7.114-15.86-15.86-15.86zm0 32.535c-9.194 0-16.674-7.48-16.674-16.674C.024 7.48 7.504 0 16.698 0c9.194 0 16.674 7.48 16.674 16.674 0 9.194-7.48 16.674-16.674 16.674z"/><path d="M22.594 21.162c0 .773-.63 1.401-1.403 1.401h-8.982a1.403 1.403 0 0 1-1.403-1.401v-5.99h2.186a3.992 3.992 0 0 0-.295 1.502c0 2.206 1.796 4 4.003 4a4.006 4.006 0 0 0 4.003-4c0-.531-.107-1.037-.295-1.502h2.186v5.99zm-7.983-5.99a2.573 2.573 0 0 1 2.09-1.074c.86 0 1.62.425 2.088 1.074.305.423.49.94.49 1.502a2.578 2.578 0 0 1-5.155 0c-.001-.562.182-1.079.487-1.502zm7.391-4.126l.323-.002v2.48l-2.473.008-.009-2.48 2.16-.006zm-.811-1.687h-8.982a2.832 2.832 0 0 0-2.83 2.827v8.976c0 1.56 1.27 2.827 2.83 2.827h8.982c1.56 0 2.83-1.268 2.83-2.827v-8.976c0-1.56-1.27-2.827-2.83-2.827z"/></g></symbol><symbol viewBox="0 0 34 34" id="vk_icon"><title>VK</title><g transform="translate(.415 .407)" fill="#FFF" fill-rule="evenodd"><path d="M16.698.813C7.952.813.838 7.928.838 16.674c0 8.744 7.114 15.86 15.86 15.86 8.746 0 15.86-7.116 15.86-15.86 0-8.746-7.114-15.86-15.86-15.86zm0 32.535C7.504 33.348.024 25.87.024 16.674.024 7.48 7.504 0 16.698 0c9.194 0 16.674 7.48 16.674 16.674 0 9.195-7.48 16.674-16.674 16.674z"/><path d="M16.922 23.173s.315-.035.477-.205c.148-.156.143-.451.143-.451s-.02-1.376.631-1.58c.641-.2 1.465 1.331 2.34 1.92.66.445 1.16.348 1.16.348l2.337-.032s1.221-.074.642-1.017c-.048-.077-.338-.698-1.736-1.972-1.465-1.334-1.269-1.119.495-3.427 1.074-1.405 1.504-2.263 1.37-2.63-.128-.35-.918-.258-.918-.258l-2.63.016s-.195-.026-.34.06c-.14.082-.232.276-.232.276s-.416 1.087-.97 2.013c-1.172 1.95-1.64 2.054-1.831 1.933-.446-.283-.334-1.135-.334-1.74 0-1.892.292-2.68-.57-2.884-.285-.068-.495-.113-1.227-.12-.938-.01-1.732.003-2.182.219-.299.143-.53.464-.389.483.174.022.567.104.776.382.27.36.26 1.168.26 1.168s.155 2.227-.362 2.503c-.354.19-.84-.197-1.884-1.968-.535-.907-.938-1.91-.938-1.91s-.078-.186-.217-.287c-.169-.122-.404-.16-.404-.16l-2.499.016s-.375.01-.513.17c-.122.143-.01.437-.01.437s1.957 4.493 4.172 6.757c2.032 2.076 4.337 1.94 4.337 1.94h1.046z"/></g></symbol><symbol viewBox="0 0 34 34" id="you_tube"><title>twitter</title><g fill="#FFF" fill-rule="evenodd"><path d="M16.698 1.22C7.953 1.22.838 8.335.838 17.08c0 8.746 7.115 15.86 15.86 15.86 8.746 0 15.86-7.114 15.86-15.86 0-8.745-7.114-15.86-15.86-15.86zm0 32.534C7.505 33.754.024 26.274.024 17.08.024 7.886 7.504.406 16.698.406c9.194 0 16.674 7.48 16.674 16.674 0 9.194-7.48 16.674-16.674 16.674z"/><path d="M12.765 20.751l.01-2.47.462-.006.462-.006-.006-.38-.006-.381-1.333-.006-1.332-.005v.772l.451.006.45.005.006 2.451c.003 1.348.01 2.463.015 2.477.007.02.1.024.41.02l.401-.005.01-2.472zm7.689-.173c-.019-.05.007-.62.032-.704.059-.194.183-.29.378-.29.163 0 .266.064.336.205.044.09.048.128.055.46l.006.36h-.398c-.342 0-.399-.004-.409-.031zm.743 2.662c.39-.11.66-.377.762-.754a2.7 2.7 0 0 0 .043-.408l.012-.29h-.752l-.009.26c-.01.295-.04.397-.148.491-.114.1-.323.107-.46.015-.162-.11-.202-.295-.193-.897l.005-.428.778-.004.777-.006-.01-.636c-.012-.709-.027-.816-.145-1.068-.227-.477-.854-.718-1.375-.527-.392.143-.625.403-.718.804-.033.141-.036.268-.036 1.305 0 1.272.004 1.324.133 1.585.232.463.81.705 1.336.558zm-3.078-.724a.273.273 0 0 0 .103-.148c.032-.092.035-.21.03-1.301-.004-1.137-.007-1.204-.043-1.279-.094-.19-.331-.209-.548-.042l-.072.054v2.594l.071.054c.16.123.337.15.459.068zm.47.732c.118-.034.261-.175.325-.32.124-.275.124-.282.124-1.83 0-1.273-.003-1.43-.035-1.567-.102-.44-.324-.632-.697-.604-.21.016-.374.1-.571.29a1.363 1.363 0 0 1-.171.152c-.008 0-.015-.422-.015-.936v-.936h-.73v5.736h.73v-.193c0-.129.007-.194.022-.194.012 0 .094.068.183.152.283.267.53.341.835.25zm-3.884-.019c.146-.054.317-.173.462-.32a.586.586 0 0 1 .146-.124c.02 0 .027.056.027.224v.224h.729V18.982h-.729v3.28l-.158.156c-.124.124-.176.162-.254.183-.13.037-.213.012-.267-.08-.04-.07-.041-.102-.047-1.805l-.005-1.734h-.729v1.841c0 2.006.002 2.05.114 2.242.123.212.41.278.711.164zm.31 1.774a89.895 89.895 0 0 1-1.246-.03c-1.423-.05-2.4-.106-2.594-.145a1.439 1.439 0 0 1-.77-.468c-.288-.356-.443-.788-.517-1.452a22.165 22.165 0 0 1 .01-4.841c.08-.654.276-1.126.606-1.455.188-.189.369-.293.61-.355.522-.134 4.608-.241 7.093-.186 1.436.032 2.987.099 3.4.146.533.061.907.338 1.167.863.195.397.258.706.337 1.658.063.754.078 1.224.067 2.094-.014 1.041-.08 1.958-.179 2.473-.104.544-.35 1.008-.669 1.26-.246.194-.508.28-.92.304l-.345.022c-.237.019-1.51.07-2.209.09-1.038.029-2.853.039-3.84.022zm-1.28-9.447c-.018-.028-.015-1.702.003-1.938.022-.304-.029-.543-.246-1.155-.07-.198-.198-.582-.283-.853-.614-1.961-.582-1.846-.523-1.847.405-.003.904 0 .91.005.004.004.135.482.292 1.064l.292 1.076c.003.01.095-.33.204-.753.23-.89.358-1.38.363-1.384.01-.01.124-.012.497-.01l.413.003-.01.066c-.006.054-.288 1.003-.583 1.967l-.183.61a50.3 50.3 0 0 1-.182.606l-.06.189v1.177c0 1.105-.002 1.18-.035 1.188-.074.02-.856.01-.87-.01zm5.333.07c-.204-.026-.323-.105-.405-.267-.102-.204-.102-.203-.102-2.23v-1.89h.822l.009 1.743c.009 1.893.006 1.85.12 1.878.103.025.218-.03.36-.176l.138-.14.005-1.653.005-1.653.41-.006.412-.004V15.557l-.056.011c-.068.014-.69.013-.74-.001-.03-.008-.036-.036-.036-.206v-.197l-.116.115c-.269.262-.558.384-.826.348zm-2.07-.826c.141-.107.142-.116.15-1.334.006-.945.002-1.106-.026-1.235-.039-.174-.106-.257-.239-.293-.17-.045-.327.052-.382.24-.041.144-.04 2.29.001 2.434.032.108.134.227.21.243a.382.382 0 0 0 .287-.055zm-.322.826c-.367-.045-.705-.262-.868-.558-.165-.302-.18-.46-.171-1.788.007-1.03.01-1.094.05-1.242.098-.35.286-.59.577-.735.4-.198.83-.172 1.207.073.24.155.386.38.465.717.034.148.037.262.037 1.3 0 1.265-.006 1.338-.135 1.612a1.15 1.15 0 0 1-.698.578c-.13.035-.354.057-.464.043z"/></g></symbol></svg>